<svg width="32" height="32" viewBox="0 0 32 32" fill="none" xmlns="http://www.w3.org/2000/svg">
<rect width="32" height="32" rx="16" fill="#3059D9"/>
<path d="M15.3721 19.3803L15.7103 19.8732L12.9928 19.8693C11.9574 19.8683 10.9843 19.4633 10.2506 18.7293C9.51778 17.9954 9.11529 17.0214 9.11628 15.9872C9.11925 13.8525 10.8597 12.1159 12.9978 12.1159L15.7202 12.1189L15.381 12.6118C14.6918 13.6095 14.3269 14.78 14.3249 15.9941C14.3229 17.2071 14.6848 18.3777 15.3721 19.3803ZM24.9547 12.1307L24.9576 10.0158L13.0067 10C9.69578 10 7.00496 12.6849 7.00001 15.9842C6.99704 17.5815 7.62006 19.0869 8.75335 20.2209C9.88565 21.3559 11.3908 21.9822 12.9908 21.9842L24.9418 22L24.9448 19.8851L20.3197 19.8792C19.2843 19.8772 18.3102 19.4722 17.5774 18.7382C16.8446 18.0043 16.4421 17.0303 16.4431 15.996C16.4441 14.9618 16.8496 13.9898 17.5853 13.2568C18.3191 12.5268 19.2922 12.1238 20.3256 12.1238L24.9547 12.1307Z" fill="white"/>
</svg>
