<svg width="36" height="24" viewBox="0 0 36 24" fill="none" xmlns="http://www.w3.org/2000/svg">
	<path d="M16.7838 18.7606L17.4618 19.7465L12.0139 19.7386C9.93823 19.7366 7.98746 18.9266 6.51646 17.4587C5.04743 15.9908 4.24056 14.0428 4.24254 11.9743C4.24849 7.70497 7.73767 4.23181 12.0238 4.23181L17.4816 4.23773L16.8016 5.22358C15.4198 7.21897 14.6883 9.56009 14.6843 11.9881C14.6803 14.4142 15.4059 16.7554 16.7838 18.7606ZM35.9941 4.26144L36 0.0316101L12.0416 0C5.40428 0 0.00993358 5.36977 2.11433e-05 11.9684C-0.00592632 15.163 1.24304 18.1739 3.51497 20.4419C5.78492 22.7119 8.80226 23.9644 12.0099 23.9684L35.9683 24L35.9742 19.7702L26.7021 19.7583C24.6265 19.7544 22.6737 18.9444 21.2047 17.4765C19.7357 16.0086 18.9288 14.0606 18.9308 11.9921C18.9328 9.92361 19.7456 7.97959 21.2206 6.51367C22.6916 5.05367 24.6423 4.24761 26.714 4.24761L35.9941 4.26144Z" fill="currentColor"></path>
</svg>